# xmcd
#
# Track frame offsets:
#  150
#  13469
#  27454
#  43576
#  60387
#  77661
#  93739
#  99735
#  111511
#  132023
#  150761
#  168223
#
# Disc length: 2370 seconds
#
# Revision: 0
# Processed by: cddbd v1.5.2PL0 Copyright (c) Steve Scherf et al.
# Submitted via: AltoMP3_Maker 3.0
#
DISCID=9309400c
DTITLE=Holden Avenue - Holden Avenue
DYEAR=1900
DGENRE=
TTITLE0=Face The Fact
TTITLE1=Lost, Not Found
TTITLE2=Cut The Rope
TTITLE3=Private Hell
TTITLE4=Doll
TTITLE5=Easy
TTITLE6=Words
TTITLE7=Stand Up
TTITLE8=Biegnie Czas
TTITLE9=Karma
TTITLE10=Amplitude
TTITLE11=Greed
EXTD=
EXTT0=
EXTT1=
EXTT2=
EXTT3=
EXTT4=
EXTT5=
EXTT6=
EXTT7=
EXTT8=
EXTT9=
EXTT10=
EXTT11=
PLAYORDER=
